<?xml version="1.0" encoding="UTF-8" standalone="no"?>
<svg
   version="1.2"
   viewBox="0 0 1057 1280"
   width="1057"
   height="1280"
   id="svg1"
   sodipodi:docname="tux_white.svg"
   xml:space="preserve"
   inkscape:version="1.4.2 (f4327f4, 2025-05-13)"
   xmlns:inkscape="http://www.inkscape.org/namespaces/inkscape"
   xmlns:sodipodi="http://sodipodi.sourceforge.net/DTD/sodipodi-0.dtd"
   xmlns="http://www.w3.org/2000/svg"
   xmlns:svg="http://www.w3.org/2000/svg"
   xmlns:rdf="http://www.w3.org/1999/02/22-rdf-syntax-ns#"
   xmlns:cc="http://creativecommons.org/ns#"
   xmlns:dc="http://purl.org/dc/elements/1.1/"><sodipodi:namedview
     id="namedview1"
     pagecolor="#ffffff"
     bordercolor="#666666"
     borderopacity="1.0"
     inkscape:showpageshadow="2"
     inkscape:pageopacity="0.0"
     inkscape:pagecheckerboard="0"
     inkscape:deskcolor="#d1d1d1"
     showgrid="false"
     inkscape:zoom="0.65390626"
     inkscape:cx="313.50059"
     inkscape:cy="373.9068"
     inkscape:window-width="1920"
     inkscape:window-height="1017"
     inkscape:window-x="1592"
     inkscape:window-y="-8"
     inkscape:window-maximized="1"
     inkscape:current-layer="svg1" /><title
     id="title1">tux_white</title><style
        id="style1" /><metadata
     id="metadata1"><rdf:RDF><cc:Work
         rdf:about=""><dc:title>tux_white</dc:title></cc:Work></rdf:RDF></metadata><path
     style="display:inline;fill:#ffffff"
     d="m 748.28642,1278.3793 c -15.40265,-3.2055 -30.44785,-9.1704 -43.27072,-18.3672 -17.09642,-13.3384 -29.99611,-31.892 -36.95778,-52.4011 -0.16204,-2.6582 -2.05253,-2.7711 -4.25351,-2.4267 -37.6691,1.2643 -74.6983,-7.2078 -112.09165,-10.1145 -35.47933,-2.308 -70.54124,5.2591 -105.28426,11.3416 -11.41355,2.0129 -22.87762,4.1887 -34.50549,4.1606 -5.88767,1.3298 -6.77289,8.6661 -10.33587,12.6583 -10.09733,13.2773 -22.81912,25.0595 -38.24901,31.7926 -18.14866,8.2684 -38.5219,10.0834 -58.24071,9.7044 -27.76226,-0.9677 -54.99768,-8.2844 -80.30767,-19.5318 -21.33935,-9.1448 -42.01992,-20.5559 -65.00105,-25.1509 -36.72897,-8.804 -74.899545,-8.99 -111.642685,-17.6738 -16.99623,-4.3699 -34.629527,-13.0958 -42.7022693,-29.5415 -8.5132037,-17.5764 -5.64151764,-37.9869 -1.0323761,-56.2283 3.187131,-13.3568 9.3824704,-26.3331 8.4090694,-40.3765 -0.894461,-25.1258 -8.183865,-49.9724 -5.5419195,-75.2128 2.5946073,-19.70344 15.7127075,-37.19362 33.1013375,-46.4991 18.671349,-10.76683 41.168349,-13.74668 58.5305,-26.9533 7.558513,-6.65001 12.914033,-15.35695 19.209603,-23.13604 7.79394,-10.34309 15.79479,-20.56735 24.84178,-29.85426 -1.34761,-18.8924 -2.67322,-37.87429 -0.68724,-56.77916 5.21099,-56.72353 26.66105,-110.61703 53.20114,-160.53085 29.40991,-55.02661 66.10725,-105.76344 105.04276,-154.37936 19.01871,-24.45077 34.06811,-52.05988 44.10213,-81.37363 8.99999,-26.83429 13.49905,-55.03081 15.31783,-83.21559 1.21296,-30.76355 -3.46751,-61.3572 -3.41098,-92.10681 -0.21095,-25.86799 -0.51706,-51.79827 1.48681,-77.60796 4.72354,-36.4411 14.56001,-73.482721 36.80216,-103.381956 21.28782,-29.053033 54.09712,-47.682239 88.41934,-56.9768571 31.46313,-8.39223765 64.43979,-9.4127312 96.7805,-7.25277863 24.07636,1.66324483 47.78113,8.38040173 68.95334,20.00846873 29.88219,15.875869 52.61176,42.931114 66.65986,73.399604 15.64196,33.635329 22.77112,70.551169 26.30065,107.276739 3.09623,40.03035 2.56094,80.2223 3.37725,120.33655 0.49392,14.19865 -0.20941,28.55451 2.28957,42.59374 6.24662,30.71857 19.81348,59.5242 37.26769,85.42161 22.10145,33.33758 48.66886,63.33248 72.93628,95.04602 19.63175,26.08005 38.49777,52.86714 54.44917,81.38321 11.55814,21.7907 22.65401,43.9005 31.71968,66.8577 10.75046,28.7785 18.73125,58.80828 21.52295,89.46032 1.41545,22.1944 1.60302,44.62618 -1.60607,66.67729 -2.47836,13.82464 -5.7952,27.49452 -9.66164,40.99414 2.65426,4.64445 9.42874,5.5251 13.38741,9.24295 11.62265,7.29904 19.94154,18.95679 24.31837,31.85634 7.56139,20.64882 10.6631,42.64361 18.3943,63.22419 6.998,16.53538 21.1689,28.41028 30.576,43.45188 9.0849,14.1039 17.433,30.5486 15.4454,47.8332 -2.2057,14.6077 -11.5795,27.2669 -23.5381,35.5738 -19.112,13.2069 -40.42649,22.7238 -60.99621,33.3697 -23.48947,11.9505 -47.39198,24.3974 -66.08792,43.377 -13.19867,13.2206 -25.19794,27.676 -39.62168,39.6416 -22.55908,19.403 -49.76288,34.0583 -79.18567,39.4441 -12.76574,1.4957 -25.82729,2.3838 -38.6304,0.9451 z m 23.60736,-31.4092 c 4.78691,-0.8382 9.5907,-0.8384 13.83859,-2.4677 5.48045,-0.4615 10.76912,-2.9649 16.15991,-3.6068 4.35894,-1.8363 9.34476,-4.3829 14.0522,-6.4307 3.89325,-0.7865 5.77165,-4.2949 8.83745,-5.6375 3.13609,-1.7697 5.93253,-4.7454 9.33015,-6.7139 2.97892,-3.6075 7.78292,-5.1163 10.75417,-9.1295 4.50804,-3.1414 9.06421,-6.3285 12.69929,-10.6126 5.30315,-2.7609 8.68176,-8.3597 13.85852,-11.5218 3.68105,-4.0517 7.38233,-8.104 11.9462,-11.0922 3.62727,-5.1382 9.47793,-7.4646 13.19914,-12.3836 4.10516,-2.4594 7.58723,-5.5859 11.05801,-8.8173 3.52193,-1.3372 5.46962,-5.4441 8.97054,-5.545 2.14467,-3.4149 7.34318,-5.6493 10.29587,-7.5559 2.24163,-1.9943 4.47224,-2.4407 6.55471,-4.6822 2.34255,0.4685 3.42004,-3.2493 6.14945,-2.7701 2.13167,-1.3763 5.33771,-5.1036 9.10772,-4.8215 0.87011,-2.5997 3.86429,-1.1248 5.06467,-3.8951 3.2266,-2.6341 6.72886,-1.7964 8.39208,-4.5137 4.64893,-0.6167 8.77446,-6.1951 14.11937,-6.6551 1.03132,-1.4472 3.15541,-1.7234 4.612,-2.7214 2.26079,-0.991 6.35909,-4.2004 9,-4.8923 2.20749,-1.1571 4.30396,-3.0594 7.68127,-4.5565 3.65761,-2.6187 7.37211,-3.7885 10.01011,-6.6811 3.6822,-1.0483 5.8056,-4.8764 9.6024,-6.7138 3.2756,-2.9877 8.1258,-6.3753 7.4874,-10.908 1.0559,-4.6444 -0.3301,-8.0898 -2.039,-12.0131 -1.727,-4.3248 -4.6741,-8.8366 -7.6002,-13.2615 -1.7935,-3.502 -4.3523,-6.2693 -6.9059,-9.3144 -1.1032,-3.2681 -4.5486,-5.8486 -5.7975,-8.7014 -2.66467,-2.7863 -4.00847,-5.7459 -6.08798,-8.3766 -2.75761,-3.4213 -3.86826,-8.013 -7.00692,-11.6271 -2.7145,-3.6672 -3.4146,-9.0652 -6.03407,-12.2228 -0.1267,-3.3842 -3.2304,-6.39768 -3.53108,-9.96459 -2.4745,-2.33302 -0.68561,-6.80414 -3.49517,-8.1716 0.24238,-4.76115 -2.68445,-7.07351 -3.2905,-12.34213 -0.57368,-2.92515 -2.31188,-6.14883 -2.46939,-9.39737 -1.77627,-2.27867 -1.71234,-4.76455 -2.80217,-7.73383 -0.30334,-2.87243 -3.63811,-7.26804 -3.39898,-11.07183 -2.39207,-4.25697 -4.52412,-9.09673 -6.75869,-13.66464 -2.15852,-5.44903 -7.78409,-8.9287 -12.71047,-11.74312 -5.21751,-1.46481 -10.76194,-1.94981 -16.24679,-1.95348 -5.56518,-0.51304 -11.14525,0.58144 -16.45251,0.88029 -2.20389,1.5846 -4.76378,0.93813 -6.57316,3.07979 -3.31895,2.31783 -7.19754,5.11987 -10.575,7.85499 -5.61293,4.56193 -18.31558,12.57789 -28.61796,17.14789 -4.18995,2.18148 -10.29813,4.13785 -16.42571,5.75172 -4.89329,1.19968 -9.35925,2.06863 -14.24745,2.75169 -9.73074,0.38519 -19.57137,0.58644 -29.23221,-0.4023 -2.77812,-1.67379 -4.90994,-1.35891 -7.30417,-3.10841 -2.47925,-0.91505 -6.12441,-1.45459 -8.2582,-4.10677 -3.45406,-0.59185 -6.53517,-4.24406 -9.66901,-6.79889 -4.0039,-3.1868 -5.98892,-7.56819 -9.47712,-10.65778 -0.59714,-3.01763 -3.79976,-4.50479 -4.24993,-7.36666 -2.63003,-1.89511 -2.07143,-4.38265 -4.00477,-6.14686 -3.54429,-3.05713 -3.47142,-9.35841 -6.12778,-11.86124 0.12042,-2.56021 -2.53227,-4.26555 -1.83488,-7.25628 -3.42425,0.30377 -5.63183,4.31142 -7.16888,7.62883 -1.71346,4.52054 -4.46993,7.19554 -4.95159,11.498 -1.48038,4.30467 -2.47032,7.74942 -2.72763,11.84117 -2.21636,4.15361 -0.84894,8.44247 -3.03954,12.73724 0.69683,5.87926 -2.11919,11.34619 -1.74389,17.3395 0.14897,5.68809 -2.01484,11.09229 -1.8919,16.80768 -0.41466,8.98099 -2.04862,17.83078 -2.54545,26.80709 -1.31303,5.6656 -1.68803,11.247 -2.07638,17.0332 -1.82753,5.5037 -2.17092,11.4919 -2.65573,17.2264 -2.31617,3.9028 -0.90308,8.6548 -3.05365,12.6656 -0.0863,4.2808 -1.6517,7.9709 -2.15147,12.2374 -0.84167,3.7298 -1.98292,7.7231 -2.41166,12.0224 -1.91105,4.2938 -2.9279,9.0035 -3.35736,13.8193 -2.64818,2.5525 -1.24422,8.4551 -4.10804,11.9669 0.2549,3.6702 -1.61797,5.7997 -2.06202,9.3502 -0.56869,3.2683 -1.99156,6.2054 -2.14358,9.6463 -2.15419,2.5299 -0.34208,7.4135 -3.05145,9.2295 0.22799,3.669 -1.68613,7.159 -1.68589,10.7072 -1.8333,3.8197 -1.05858,7.6699 -2.64748,11.4346 -1.05946,4.5948 -1.10682,9.0375 -2.31705,13.8593 -0.58686,7.4288 -1.40537,14.9491 -0.77845,22.3966 1.43462,3.878 -0.095,9.0406 2.74099,11.7362 -0.70102,2.9776 1.82413,3.8207 1.9775,6.045 2.29421,2.8089 1.64727,5.3518 4.42349,7.2059 1.01208,2.9477 3.06847,4.8379 4.87008,7.5366 3.30124,3.863 6.3465,8.245 10.20911,11.8876 3.55374,3.6407 7.75214,6.2181 10.89276,9.0193 2.71965,1.7163 7.31861,2.5111 9.75383,4.3909 4.18573,1.2313 9.0098,0.356 13.55101,1.7691 5.52481,0.7657 11.06043,-0.6236 16.59377,-0.7214 z m -447,-13.8751 c 4.5443,-0.539 8.58292,-2.1877 12.86672,-2.0081 2.21951,-1.6729 4.66601,-1.8769 7.33348,-2.791 3.39237,-1.7401 7.78734,-3.2636 10.7998,-4.9584 2.44604,-1.3654 5.25122,-3.7092 7.96673,-5.8086 4.68258,-2.687 7.60912,-7.8253 11.30141,-11.6488 1.56864,-3.6429 4.37825,-8.6802 6.3645,-12.8509 0.68229,-3.6847 2.76694,-5.8447 2.70725,-9.2163 2.18324,-4.2564 2.74387,-10.022 2.36921,-15.1716 -0.9712,-3.6011 -1.21862,-7.6124 -2.6187,-10.2448 -0.85655,-2.1831 -1.06062,-4.2812 -2.87795,-5.75 -1.04304,-3.8185 -2.7387,-7.6694 -4.42762,-10.4675 -2.92212,-4.6361 -3.91488,-7.5487 -7.02099,-11.7031 -0.67484,-2.9077 -3.24351,-4.1372 -3.39541,-6.7824 -2.7814,-1.8299 -2.90457,-5.1336 -5.49836,-6.9884 -0.84276,-2.8177 -3.16372,-4.673 -4.4392,-7.1967 -1.5548,-2.7514 -3.71981,-4.9736 -5.38723,-8.1524 -2.69099,-2.1085 -3.37464,-5.9927 -6.60301,-8.146 -1.31671,-3.7488 -4.6741,-5.7413 -5.88697,-9.2496 -3.1957,-3.4408 -6.05467,-6.8565 -8.84619,-10.6547 -2.50484,-3.2506 -4.45297,-6.5457 -7.59688,-9.7078 -1.78174,-3.4842 -4.99672,-7.2669 -6.83869,-10.1995 -2.17998,-3.5079 -5.31083,-7.1172 -6.74742,-10.2875 -2.34906,-2.145 -3.24628,-4.794 -5.09361,-7.1025 -1.81997,-2.3372 -2.82249,-4.9273 -5.054,-7.1666 -0.76238,-2.8467 -4.28831,-6.8202 -5.946,-9.8334 -1.90532,-3.0258 -4.52247,-5.7949 -5.83728,-9.7633 -1.01465,-1.8373 -3.04855,-3.7746 -3.65035,-5.9527 -3.31224,-3.36649 -5.20824,-9.26001 -8.41922,-13.50241 -2.37184,-3.94153 -3.5187,-5.827 -5.98373,-10.05409 -0.65996,-2.24147 -3.76475,-5.05152 -4.14757,-8.27239 -1.94124,-1.69161 -3.54088,-6.6975 -5.55939,-9.06699 -1.40103,-1.985 -3.31841,-6.4012 -4.47508,-8.00329 -2.31425,-4.04602 -3.46581,-5.99312 -5.5,-9.53861 -2.12514,-4.15454 -4.55652,-7.30934 -6.16934,-11.01747 -2.09066,-1.16476 -2.40351,-4.27082 -4.0411,-5.55899 -1.8555,-3.37632 -3.68398,-6.30615 -6.2112,-9.26759 -1.92153,-3.29557 -4.95994,-6.54502 -7.4904,-10.15997 -4.60348,-5.39808 -10.00563,-10.13091 -15.74609,-14.22939 -1.67633,-1.36277 -3.53326,-1.70329 -6.11473,-2.716 -3.45364,-0.34542 -7.35146,-1.73341 -11.60678,-1.67695 -5.91098,-0.0514 -12.03589,-0.57179 -17.80998,0.4148 -4.18086,3.77011 -9.81972,6.89969 -12.06298,12.44936 -4.48191,3.5919 -6.9999,8.70271 -11.47147,12.19655 -2.68272,4.80632 -7.69385,7.71406 -10.27625,12.58499 -4.99947,3.873 -7.90421,9.43939 -12.54087,13.64695 -4.33678,2.83871 -7.76556,6.49785 -11.64467,9.7586 -2.94161,2.53813 -6.94789,5.04103 -9.56761,6.68177 -2.22702,1.20328 -3.69326,2.86602 -6.025876,3.04989 -0.874024,1.85346 -3.500925,0.94097 -4.372657,2.99342 -2.235302,-0.46762 -3.021334,2.0908 -5.094531,1.74017 -1.590906,1.94811 -5.069915,2.28483 -7.611719,3.9236 -2.374147,0.38193 -5.737246,3.12204 -8.297345,3.14443 -2.119875,2.31438 -6.428477,2.04963 -7.774823,3.97326 -3.976034,0.66483 -7.885669,4.75246 -12.416059,5.68417 -3.500866,1.9122 -6.637515,5.06988 -10.328792,7.70133 -3.328367,4.01242 -4.132297,8.35086 -5.976951,12.51895 -0.711274,13.1602 0.02355,26.3956 1.720245,39.4551 2.16477,6.531 0.327831,13.6598 2.230295,20.2597 0.36834,12.1524 0.472278,24.3983 -0.388757,36.4992 -2.021872,2.8195 -0.721689,6.734 -3.170555,8.6322 0.331433,3.5726 -1.550176,5.7976 -2.123858,8.7757 -0.44938,4.206 -2.592181,8.2097 -1.893656,12.8826 -3.005754,4.6334 -0.887303,11.5252 -1.59182,17.0351 0.09193,5.6813 -0.311636,12.0263 3.873007,16.5058 2.782088,3.6151 5.162961,3.6358 8.674857,6.1354 3.298314,0.2342 5.283316,2.268 8.464312,2.5169 2.449969,1.435 6.922964,0.7846 9.681552,2.5869 4.79682,0.7273 9.862584,1.0468 14.916621,2.3444 6.430612,0.662 12.704008,2.2653 19.167452,2.7498 5.519528,1.129 11.334328,1.6645 16.620358,2.7329 4.86695,0.7883 9.58047,1.5172 14.40308,2.1463 5.53234,1.2598 11.45366,2.1429 17.40313,2.8335 3.04292,2.4659 8.02069,1.1947 11.61677,2.8989 3.66653,0.3823 7.04658,1.5083 10.62191,2.1041 3.45886,0.8337 6.30284,1.6591 9.66645,2.1812 3.24965,2.1051 9.06441,1.2081 11.82026,3.9359 3.57268,-0.285 5.08497,2.6989 9.07226,2.9059 3.58294,0.9393 6.14273,2.606 8.93125,3.1479 1.54613,1.5729 4.18203,1.0132 5.51954,2.9069 3.129,-0.7881 3.68714,2.4831 6.25915,2.1355 4.03226,1.4581 7.78529,3.3639 11.38563,4.8455 2.42225,1.2909 6.09193,1.5628 9.0593,3.7526 1.73616,0.5366 5.36164,1.5105 7.24357,2.1412 1.90727,1.3999 3.88008,1.6276 6.07464,2.599 3.09849,0.4646 4.38724,1.6764 7.45168,2.5513 2.812,-0.151 4.60356,2.8306 8.21235,2.1998 4.72018,1.4531 8.30585,2.7056 12.71891,3.7883 4.27874,0.055 8.44227,2.4258 13.49589,1.9842 5.44166,-0.1807 10.84153,1.6369 16.40936,0.8412 4.41905,-0.1306 8.83555,-0.3577 13.24879,-0.6064 z m 225.5,-114.7699 c 25.07997,-1.8793 48.47224,-11.8751 71.45933,-21.3334 11.93892,-5.449 24.99144,-10.3817 33.74753,-20.6121 6.5283,-8.9261 7.98137,-20.2967 10.47137,-30.7944 8.18397,-41.2284 11.12902,-83.27193 18.52304,-124.62468 3.79052,-22.06464 15.29667,-41.83857 28.09119,-59.85948 16.64914,-23.19578 36.59666,-43.70937 55.84009,-64.70919 4.99566,-3.66999 5.73039,-8.56379 2.62679,-13.79651 C 753.17321,724.5582 729.66425,668.42416 704.61721,613.12905 679.84245,557.69719 656.52583,501.57062 636.11522,444.37593 c -1.25958,-3.55735 -2.25646,-7.19753 -3.31617,-10.81709 -18.20932,9.13095 -36.77559,17.50739 -54.94571,26.72216 -20.0304,9.44615 -39.92081,20.06717 -61.74876,24.72988 -24.63215,5.51311 -50.14467,-1.62133 -72.02031,-13.08355 -9.34192,-4.63966 -17.65173,-11.01325 -26.5829,-16.323 -5.21633,21.37903 -10.77473,42.70082 -18.1963,63.44011 -22.71737,65.34561 -52.67902,127.82881 -77.53251,192.33939 -11.04539,28.3623 -19.74834,57.69415 -24.50619,87.79297 -2.92978,15.84326 -4.9594,32.22652 -11.86895,46.95472 -2.86393,4.48701 -8.11486,9.91905 -0.46544,12.86899 25.78752,20.35993 52.42537,39.65794 77.56597,60.82542 23.24497,20.84017 45.36259,44.36335 57.98337,73.32519 7.49028,17.41468 10.77093,38.11948 2.92248,55.97688 -4.19491,9.7997 -12.24796,17.0084 -19.10286,24.8813 -2.33446,5.3903 5.69388,8.7135 8.79885,12.2275 18.40516,14.6904 40.40657,24.4387 62.99888,30.6787 14.4918,4.2639 29.7264,2.776 44.60762,2.7887 9.90204,-0.2575 19.81645,-0.5106 29.68749,-1.3791 z M 258.31564,666.41824 c 11.23551,-25.5838 25.48153,-49.75734 36.21014,-75.56848 2.06845,-2.73162 1.45816,-9.61543 -1.87248,-4.01154 -12.19348,18.00207 -22.41018,37.26105 -32.55319,56.4691 -4.48898,8.76709 -8.89041,17.57872 -13.33873,26.36649 2.73083,1.23609 5.39772,2.63452 8.22441,3.64176 1.56564,-2.01802 2.3112,-4.57376 3.32985,-6.89733 z m 554.32181,-32.546 c 7.10452,-3.11597 -1.60909,-9.381 -3.27732,-13.63004 -10.24628,-15.65016 -21.82215,-30.39464 -34.63928,-44.02168 -4.50928,-4.55464 -8.4949,-9.83945 -13.89869,-13.36968 -7.89152,1.16453 0.66397,9.66214 3.34404,12.6788 15.61751,16.60584 30.15737,34.45871 40.86882,54.67898 2.44926,3.65337 2.77732,8.16467 7.60243,3.66362 z M 518.62033,445.98552 c 14.04109,-3.48321 44.25481,-21.59209 52.67896,-25.41315 11.3452,-6.52632 37.88316,-17.16223 43.59449,-22.23486 19.80704,-14.09906 31.50751,-26.55078 27.16944,-48.62438 -0.57307,-3.63554 -1.71034,-4.44321 -3.83726,-7.39374 -3.36926,-4.26992 -7.68999,-6.34691 -12.74767,-10.17404 -8.83134,-5.70766 -18.56604,-8.88247 -28.10386,-12.25176 -10.43011,-4.99403 -20.8534,-10.5191 -36.81861,-17.86977 -11.85141,-5.82617 -26.88952,-14.44861 -39.66204,-16.58845 -10.41009,-3.19838 -21.50154,-1.84462 -32.23504,-2.10333 -16.07399,0.42842 -27.30937,7.42331 -29.15324,8.40808 -7.45543,4.59924 -11.99982,8.70995 -18.58173,13.91286 -5.37703,3.49232 -8.91751,9.43751 -14.65888,12.33105 -3.11642,3.99704 -7.85682,5.55981 -10.89313,9.17193 -3.59276,1.93928 -6.65671,5.03357 -9.9428,7.24057 -3.83793,2.8213 -7.04241,6.09399 -11.19544,8.5293 -4.07721,4.06003 -8.79731,7.902 -10.24958,13.9707 -2.03315,8.17908 0.82618,17.0594 5.76617,23.42274 0.82198,2.33784 4.61384,6.21574 7.14979,8.8828 3.53019,4.46181 12.86401,11.20141 18.6009,15.19446 5.63043,3.90812 10.495,9.25683 18.21037,14.54036 8.70031,5.72441 14.74712,10.27108 23.33051,16.5432 7.71371,6.33332 16.80916,8.73719 25.38862,12.59685 5.54494,1.02593 11.54898,1.18505 17.33314,1.02394 7.84666,-0.22536 12.63883,-1.55219 18.85689,-3.11536 z M 475.59597,417.2125 c -5.14351,-0.63236 -9.82373,-2.26764 -15.11383,-3.38251 -4.77744,-1.5959 -8.5844,-4.03705 -13.29886,-5.67873 -3.96673,-2.11116 -6.01823,-3.30308 -11.73012,-6.44365 -9.0736,-5.35291 -14.78162,-9.94302 -19.02647,-13.31109 -4.09628,-3.22738 -7.77667,-7.07163 -11.90554,-10.4696 -3.97758,-3.51262 -7.38353,-8.12421 -10.92973,-11.64078 -2.71526,-3.47479 -4.23683,-10.04324 1.26285,-12.92678 5.46337,-2.13346 9.27862,2.90635 12.03951,6.4036 3.95242,4.21076 5.83328,8.0703 11.14881,14.01878 10.68615,8.76694 18.57278,14.63759 29.72507,20.52272 3.51171,2.19047 8.04198,2.99871 11.12612,5.25873 2.45749,1.3942 6.2469,1.52792 9.00377,3.18331 9.05217,2.43491 18.7807,1.84228 28.15259,1.79661 7.43579,-0.69578 26.24033,-4.78418 31.78084,-7.0067 12.15122,-4.5737 20.73001,-8.65342 31.74093,-15.17795 9.03287,-5.27444 14.31464,-8.64685 21.57788,-13.5392 8.68907,-6.6 17.81674,-14.01037 21.96095,-18.69561 3.29268,-2.91676 8.3925,-9.78165 12.85005,-6.29449 4.80033,0.8322 4.36329,8.14989 1.34477,10.87575 -10.30123,10.52099 -23.9832,21.41913 -24.64862,21.80997 -4.68326,3.47093 -13.78353,9.55756 -15.64478,10.52946 -2.71614,1.85604 -6.94601,3.58183 -12.82461,6.74411 -10.5278,5.05284 -20.87362,11.2113 -32.29375,15.41002 -3.1079,1.8348 -22.00622,7.40505 -29.55821,7.5498 -8.32056,1.61425 -24.31955,1.12036 -26.73962,0.46423 z M 462.47711,314.64652 c -7.67286,-0.41181 -8.29386,-10.85113 -1.70465,-13.90056 2.80294,-1.32742 8.38068,-4.13216 12.86309,-3.46377 4.85574,-0.87497 12.78075,1.31373 10.09271,7.78679 -2.66767,4.2916 -7.57394,5.24393 -11.97367,7.32818 -2.7793,0.83463 -6.40036,4.23042 -9.27748,2.24936 z m 61.91667,-0.55881 c -3.68906,-2.97497 -7.60593,-3.9584 -12.17513,-6.8203 -6.50305,-3.55544 -0.0792,-11.03276 5.10296,-10.15869 4.13505,0.12898 10.67015,-0.24312 13.71549,2.57692 3.12371,2.11252 8.94145,7.23156 4.80806,11.42144 -2.6868,2.97474 -7.66992,5.70562 -11.45138,2.98063 z m -111.52321,-0.79513 7.98677,-6.10394 c -6.56121,-7.42529 -11.77426,-16.25116 -13.18333,-26.20787 -1.82932,-12.8865 -1.85482,-27.25873 5.42589,-38.5756 3.60712,-5.83665 11.67632,-9.21342 17.89774,-5.39221 9.90333,6.00618 14.0193,17.9966 15.97665,28.82757 1.88819,5.13257 1.16179,14.9075 1.27219,17.53892 7.92798,-3.78697 16.71383,-8.12494 25.1473,-10.7001 -0.35511,-16.3221 -0.38798,-33.11273 -7.00149,-48.37877 -6.07422,-14.5059 -16.25254,-29.22758 -32.03305,-33.96546 -8.06324,-2.17839 -17.31815,-2.28775 -24.4348,2.66736 -14.99056,9.22704 -22.88244,26.42261 -26.58834,43.03707 -2.36485,11.26242 -1.15921,22.87438 -0.53334,34.26245 1.28343,17.92418 9.67004,34.6493 20.75347,48.50366 2.78767,0.94368 6.63486,-4.22846 9.31434,-5.51308 z m 217.75074,-0.64799 c 20.89169,-31.08785 20.87425,-74.35609 1.37837,-106.0941 -10.61924,-17.33937 -29.64976,-31.13995 -50.67905,-30.13187 -13.62124,0.047 -26.62924,6.16725 -36.17693,15.71987 -13.19959,12.89692 -21.61837,30.40994 -24.64394,48.51314 -0.67182,10.24973 -1.1423,20.56423 -0.53115,30.82424 4.78448,2.85695 11.24883,3.53833 16.62785,5.69596 5.35233,1.69829 10.56603,3.78416 15.79732,5.81485 0.0892,-12.86084 -0.58356,-26.33027 5.55263,-38.09016 4.00031,-9.15224 11.7896,-18.36428 22.57691,-18.48232 7.6843,-0.78097 14.85814,3.51845 19.0617,9.76031 10.1494,13.44472 10.22755,31.45002 7.90532,47.38841 -0.99465,7.4069 -5.26492,16.14097 -10.39178,21.41508 0,0 6.97381,3.72351 10.73578,5.27768 6.17629,2.38189 12.26087,5.03653 18.55948,7.07937 1.85419,-1.015 2.96826,-3.06523 4.22749,-4.69046 z"
     id="path1"
     inkscape:label="path1"
     sodipodi:nodetypes="cccccccccccccccccccccccccccccccccccccccccccccccccccccccccccccccccccccccccccccccccccccccccccccccccccccccccccccccccccccccccccccccccccccccccccccccccccccccccccccccccccccccccccccccccccccccccccccccccccccccccccccccccccccccccccccccccccccccccccccccccccccccccccccccccccccccccccccccccccccccccccccccccccccccccccccccccccccccccccccccccccccccccccccccccccccccccccccccccccccccccccccccc" /></svg>
