<svg width="1088" height="816" xmlns="http://www.w3.org/2000/svg" xmlns:xlink="http://www.w3.org/1999/xlink" overflow="hidden"><defs><clipPath id="clip0"><rect x="0" y="0" width="1088" height="816"/></clipPath></defs><g clip-path="url(#clip0)"><rect x="0" y="0" width="1088" height="816" fill="#10242A"/><path d="M-216.351 596.775C-226.712 596.846-233.589 601.706-240.456 609.042-248.596 617.733-255.554 629.99-264.815 639.761L-264.866 639.812-264.927 639.863C-274.942 649.91-287.626 652.925-298.334 656.766-309.031 660.597-317.651 664.652-323.529 675.982L-323.57 676.064C-328.165 684.583-327.156 696.819-325.098 710.257-323.04 723.706-319.892 738.032-324.14 751.124L-324.171 751.226-324.212 751.329C-332.79 774.733-332.698 788.457-328.664 796.333-324.629 804.198-315.827 808.437-302.348 811.249-275.38 816.883-233.355 815.019-198.023 833.736-198.013 833.736-198.002 833.746-197.992 833.746-166.063 850.446-134.083 855.815-110.508 850.425-86.9119 845.035-71.5484 830.2-69.4699 802.955L-69.4699 802.884-69.4597 802.823C-67.8604 786.847-80.1472 765.97-96.0304 745.184-111.913 724.389-130.659 704.001-139.533 685.468L-139.554 685.448-139.564 685.417-172.919 624.621C-184.473 608.95-196.464 599.333-210.218 597.255-212.255 596.938-214.181 596.786-215.994 596.775-216.117 596.786-216.229 596.786-216.351 596.775ZM178.515 595.083C177.954 595.358 177.395 595.654 176.824 595.96 164.679 602.613 157.823 614.432 153.462 631.906 149.113 649.379 147.655 672.02 146.352 697.939L146.352 698.001C145.109 718.226 135.838 743.127 129.389 767.366 122.94 791.614 119.751 814.59 127.413 829.16L127.443 829.222 127.464 829.273C139.812 854.042 160.74 864.108 184.996 862.193 209.253 860.277 236.801 845.514 259.399 818.626 285.409 787.112 326.15 775.048 349.135 761.181 360.638 754.253 366.863 747.864 367.352 739.265 367.851 730.656 362.074 717.186 344.102 697.247L344.091 697.226 344.081 697.215C334.728 686.69 332.243 671.928 329.124 658.366 326.007 644.815 322.41 632.71 314.851 626.302L314.82 626.28 314.791 626.251C304.949 617.651 295.332 616.988 283.85 617.264 281.373 617.325 278.826 617.457 276.209 617.56 263.127 632.609 232.145 651.051 210.648 645.385 191.006 640.435 179.891 617.529 178.515 595.083ZM98.663 264.522C91.0027 275.444 77.5443 284.817 60.6015 290.116 60.5913 290.116 60.5812 290.116 60.5709 290.126 52.552 292.734 44.0969 299.438 33.5106 305.49 23.7708 311.064 12.0749 315.955-2.92178 315.955-4.25647 315.955-5.6217 315.914-7.01736 315.832-21.566 314.986-31.1935 309.637-38.9059 303.443-46.5979 297.258-52.5375 290.452-60.4434 285.796-60.4536 285.796-60.4536 285.796-60.4638 285.785-63.1636 284.247-69.2254 280.151-70.9982 278.867-74.4214 343.444-117.527 424.475-138.137 471.19-152.288 504.864-160.714 540.861-161.712 576.156-198.909 526.556-171.737 463.02-157.209 435.489-140.99 405.371-138.463 397.098-142.396 399.991-157.026 423.853-179.949 461.878-188.874 500.972-193.53 521.339-194.375 541.971-188.334 561.055-182.302 580.127-169.425 597.694-146.379 612.029-146.379 612.039-146.379 612.039-146.379 612.039-115.021 631.276-93.6768 650.523-81.0741 667.578-68.4716 684.645-64.5186 699.581-68.4512 710.167-70.4277 715.467-74.401 719.583-80.0656 722.161-84.6196 724.218-90.2536 725.309-96.8758 725.299-93.5138 729.536-90.1212 733.827-86.8202 738.146-81.6549 744.911-76.6322 751.768-72.2615 758.686-7.68988 802.763 68.3535 785.829 123.145 746.736 128.585 728.028 133.964 710.362 134.769 697.309 134.769 697.299 134.769 697.299 134.769 697.289 136.073 671.318 137.449 648.22 142.207 629.106 146.975 609.97 155.553 594.381 171.253 585.782 173.779 584.407 176.286 583.306 178.792 582.43 178.965 580.82 179.199 579.221 179.485 577.662 183.988 547.809 210.64 546.353 244.087 561.064 276.342 575.654 288.445 588.401 282.975 605.681 283.178 605.681 283.372 605.681 283.565 605.671 285.685 605.621 287.865 605.609 290.076 605.691 296.779 583.887 282.832 567.911 245.106 549.542 242.569 548.338 240.063 547.228 237.607 546.209 242.641 525.74 241.642 504.994 236.946 485.27 226.655 442.009 198.364 403.689 176.827 384.625 172.843 384.462 173.23 387.947 181.248 395.731 201.115 414.01 244.546 479.636 221.043 540.575 214.329 538.854 208.053 538.027 202.358 538.202 193.371 488.531 172.568 447.308 162.105 427.908 142.431 391.341 111.826 316.403 98.663 264.522ZM76.6385 236.624C81.3332 237.171 77.86 242.187 71.2857 247.925 64.7114 253.663 54.4265 261.276 46.0724 265.631 30.1372 273.938 11.5248 284.012-8.28073 284.012-28.0761 284.012-43.7147 274.862-54.9624 265.947-60.5861 261.495-65.1504 257.062-68.5938 253.843-74.5681 249.126-73.853 242.511-71.3977 242.706-67.2837 243.22-66.6612 248.638-64.0704 251.061-60.5657 254.342-56.1747 258.591-50.8566 262.809-40.2202 271.235-26.0385 279.437-8.28073 279.437 9.44644 279.437 30.1403 269.029 42.7714 261.943 49.9276 257.928 59.0335 250.732 66.4658 245.277 72.1506 241.103 71.9439 236.077 76.6385 236.624ZM-19.3651 204.966C-17.7119 204.869-16.0817 205.107-14.7032 205.873-14.0705 206.225-13.3818 207.048-13.5967 207.739-14.256 209.854-17.6648 209.504-19.6342 210.518-21.3621 211.408-22.7527 213.36-24.6956 213.416-26.5508 213.469-29.4372 212.773-29.6786 210.933-29.9975 208.503-26.4479 206.958-24.1637 206.068-22.6941 205.495-21.0182 205.063-19.3651 204.966ZM12.3074 204.966C13.9609 205.063 15.6371 205.495 17.1067 206.068 19.3909 206.958 22.9392 208.503 22.6214 210.933 22.38 212.773 19.4937 213.469 17.6385 213.416 15.6957 213.36 14.305 211.408 12.5771 210.518 10.6078 209.503 7.19788 209.854 6.53967 207.739 6.32471 207.048 7.01346 206.225 7.64508 205.873 9.02362 205.106 10.6542 204.869 12.3074 204.966ZM-3.42111 190.846C-9.74786 190.866-15.4023 191.987-20.4658 193.739-35.1874 198.803-44.9577 209.369-51.0807 215.166L-51.0909 215.177C-51.0909 215.186-51.1011 215.186-51.1011 215.197-52.3033 216.338-53.8518 217.377-57.601 220.128-61.3808 222.889-67.0453 227.046-75.1958 233.159-82.4395 238.59-84.7929 245.661-82.2867 253.945-79.7905 262.228-71.8031 271.785-57.1935 280.048L-57.1732 280.069-57.1426 280.079C-48.0752 285.408-41.8809 292.59-34.7697 298.306-31.2141 301.159-27.475 303.707-22.972 305.632-18.4689 307.558-13.2118 308.862-6.6304 309.249 8.8147 310.146 20.1846 305.51 30.2198 299.763 40.2753 294.027 48.7914 287.007 58.5628 283.839L58.5832 283.828 58.6046 283.818C78.6332 277.562 92.9178 264.959 97.3893 252.987 99.6307 246.996 99.5595 241.311 96.8902 236.063 94.2108 230.816 88.7397 225.824 79.4278 222.003L79.4075 221.993 79.3769 221.983C60.0096 213.689 51.6043 213.098 40.7949 206.068 23.2001 194.758 8.66187 190.795-3.42111 190.846ZM-52.1913 129.377C-52.6293 129.377-53.0674 129.387-53.5156 129.408-59.2617 129.703-64.0298 132.067-68.757 136.764-73.4945 141.451-76.7546 147.156-79.1997 155.042-81.6347 162.929-82.5006 170.55-82.0117 179.414L-82.0117 179.485C-81.4819 188.35-79.7194 195.859-76.4184 203.357-73.6269 209.705-70.438 214.514-66.3526 218.345-64.478 216.96-62.8683 215.778-61.5134 214.789-59.3943 213.241-57.6694 211.832-55.102 209.845-55.5095 209.559-55.917 209.233-56.3347 208.877-58.8105 206.737-60.7259 203.956-62.3762 200.053-63.9859 196.263-64.8927 192.514-65.341 188-65.341 187.817-65.3817 187.664-65.3817 187.48-65.7892 182.824-65.5345 178.769-64.5564 174.643-63.5784 170.506-62.2234 167.388-60.1654 164.882-58.0973 162.365-55.917 161.081-53.2886 160.857-53.044 160.837-52.7996 160.827-52.5651 160.827-50.2219 160.806-48.1028 161.703-45.8615 163.639-43.3858 165.778-41.501 168.56-39.8199 172.503-38.2408 176.293-37.2934 180.043-36.8451 184.515-36.8451 184.699-36.8451 184.852-36.8145 185.035-36.4884 188.408-36.5495 191.423-36.9673 194.399-32.6679 191.556-28.2188 189.419-22.6154 187.483-21.6273 187.147-20.6288 186.831-19.5998 186.536-19.3043 183.143-19.2737 179.638-19.5081 175.919L-19.5081 175.848C-19.9972 166.984-21.7597 159.475-25.0707 151.965-28.3717 144.456-32.3145 139.128-37.5308 134.96-42.3394 131.119-46.9852 129.387-52.1913 129.377ZM54.671 120.88C46.6744 120.961 39.9188 123.355 33.0418 128.572 26.1761 133.799 21.296 140.218 17.3532 149.153 13.4105 158.079 11.7296 166.872 11.8415 177.121L11.8415 177.906C11.9027 180.8 12.1065 183.561 12.4631 186.24 18.6574 187.718 27.6248 190.266 34.6343 193.761 34.1555 190.989 33.9517 188.137 34.0229 185.019 34.0229 184.795 34.0229 184.601 34.0526 184.377 34.2471 178.712 35.2251 173.944 37.2118 169.135 39.2076 164.326 41.6018 160.871 44.8314 158.171 47.9091 155.604 50.8841 154.422 54.3074 154.412 54.4805 154.412 54.6435 154.412 54.8167 154.422 58.4641 154.544 61.5 155.889 64.5463 158.854 67.5812 161.819 69.681 165.385 71.3315 170.347 72.9106 175.075 73.6238 179.69 73.5117 185.09 73.5117 185.355 73.4404 185.549 73.4404 185.773 73.257 191.407 72.2791 196.135 70.2822 200.974 68.9668 204.184 65.4326 206.741 63.6385 208.911 66.1151 209.767 68.5165 210.561 71.5944 211.723 74.6701 212.884 78.1035 214.249 81.9852 215.91 83.1068 216.369 84.1857 216.847 85.2259 217.347 88.2925 213.638 90.8487 209.359 93.0696 204.264 96.9717 195.329 98.7444 186.577 98.6629 176.296 98.5916 176.031 98.5916 175.807 98.5927 175.542 98.398 165.527 96.4827 157.08 92.5093 148.44 88.4545 139.576 83.4216 133.239 76.4428 128.165 69.566 123.182 62.8723 120.88 55.0479 120.88ZM36.353 0.000295304C174.421 0.193867 166.658 145.699 165.793 224.163 165.232 275.576 193.657 310.38 222.724 347.05 248.693 377.738 282.69 422.598 302.16 474.092 318.033 516.04 324.196 562.469 308.476 609.093 310.829 609.979 313.183 611.1 315.505 612.476 317.818 613.852 320.12 615.502 322.361 617.458 322.381 617.479 322.411 617.499 322.433 617.52 333.741 627.149 337.276 642.004 340.435 655.779 343.602 669.564 346.548 682.504 352.731 689.483 352.731 689.492 352.742 689.504 352.752 689.514 371.559 710.391 379.74 726 378.948 739.928 378.143 753.867 367.843 763.464 355.138 771.126 329.719 786.45 291.402 798.055 268.316 826.053L263.842 822.365 268.284 826.094C244.056 854.918 214.093 871.535 185.914 873.757 157.764 875.978 131.356 862.977 117.145 834.551 117.124 834.519 117.104 834.478 117.083 834.449 115.189 830.812 113.802 826.981 112.845 823.007 76.178 825.045 44.2996 813.919 18.7786 815.978-18.8355 818.045-42.3188 827.113-63.7137 827.215-71.9863 845.393-88.0834 857.212-107.93 861.734-135.285 867.981-169.578 861.704-203.402 844.016L-200.712 838.881-203.432 844.006C-235.026 827.256-275.115 828.784-304.722 822.61-319.525 819.512-332.617 814.041-338.994 801.631-345.352 789.24-344.19 772.174-335.164 747.487-332.342 738.703-334.471 725.734-336.57 712.02-337.578 705.429-338.577 698.581-338.577 691.826-338.577 684.52-337.415 677.317-333.839 670.643-333.819 670.624-333.809 670.593-333.798 670.573-333.788 670.573-333.788 670.562-333.788 670.562-326.188 655.971-313.667 649.941-302.256 645.844-290.846 641.759-280.474 638.998-273.19 631.722-265.396 623.48-258.397 611.234-248.932 601.116-247.659 599.771-246.334 598.456-244.938 597.203-249.391 567.778-244.562 536.693-234.414 506.198-212.907 441.571-167.489 379.49-135.244 341.14-107.787 302.117-99.6978 270.654-96.8758 230.735-94.5835 176.154-135.509 13.1337 18.7786 0.713603 24.8812 0.224431 30.7393-0.00989269 36.353 0.000295304Z" fill="#FFFFFF" fill-rule="evenodd"/><text fill="#FFFFFF" font-family="Droid Sans Mono,Droid Sans Mono_MSFontService,sans-serif" font-weight="400" font-size="96" transform="translate(396.345 325)">Linux</text><text fill="#FFFFFF" font-family="Droid Sans Mono,Droid Sans Mono_MSFontService,sans-serif" font-weight="400" font-size="96" transform="translate(396.345 440)">User</text><text fill="#FFFFFF" font-family="Droid Sans Mono,Droid Sans Mono_MSFontService,sans-serif" font-weight="400" font-size="96" transform="translate(396.345 555)">Group</text></g></svg>