<svg width="1927" height="2116" xmlns="http://www.w3.org/2000/svg" xmlns:xlink="http://www.w3.org/1999/xlink" xml:space="preserve" overflow="hidden"><g transform="translate(-982 -346)"><path d="M855.006 2110.33C804.441 2104.01 759.565 2089.48 722.273 2068.01 697.307 2053.48 652.115 2008.31 637.261 1983.04 598.705 1917.66 582.904 1822.26 589.541 1693.71 591.121 1659.91 593.649 1616.64 594.597 1597.37 599.022 1519.99 580.692 1430.28 545.929 1360.48 531.075 1330.47 505.161 1290.99 480.826 1261.61 373.692 1131.48 287.1 978.914 253.601 861.414 238.115 807.717 234.639 782.448 234.007 723.382L233.375 667.79 218.837 649.155C210.62 639.047 196.399 621.043 187.234 608.725 164.48 578.718 150.891 569.242 108.542 553.764 54.5015 533.865 32.3795 516.809 17.5258 483.012 7.72896 460.269 6.78075 439.107 14.3657 385.094 22.2665 328.239 21.9503 319.395 9.9412 280.228-7.75639 222.741-3.96428 181.364 21.0024 155.463 45.3367 130.51 69.9869 123.245 178.702 109.663 258.341 99.8713 292.156 91.027 343.037 67.3375 416.988 32.5926 466.605 20.9057 528.863 23.4329 557.622 25.0121 570.579 26.9074 587.645 33.2245 624.62 46.8067 654.959 72.0754 669.812 101.135 673.921 109.347 677.081 111.242 684.666 111.242 690.038 111.242 727.962 116.928 769.046 124.193 861.643 139.986 907.467 141.565 976.678 130.51 1001.01 126.72 1039.57 122.614 1062.32 121.666L1103.41 119.771 1113.84 96.3968C1126.48 68.917 1155.55 35.7514 1181.15 20.59 1230.45-9.10086 1299.34-8.7851 1363.18 21.2219 1406.16 41.4369 1445.67 72.3915 1477.9 111.242 1520.88 162.412 1544.58 179.468 1640.34 227.479 1751.58 282.755 1774.65 305.813 1770.55 356.667 1768.33 384.147 1753.16 414.469 1724.09 449.214 1697.86 480.485 1687.75 500.384 1678.58 538.603L1671.94 566.083 1656.78 566.083C1643.82 566.083 1641.61 565.135 1643.19 560.713 1644.13 557.555 1647.61 543.025 1651.09 528.18 1659.3 492.172 1669.73 469.745 1687.75 449.214 1721.56 409.732 1743.05 370.565 1743.05 348.77 1742.74 333.293 1731.67 314.342 1715.56 302.655 1707.34 296.337 1671.31 276.438 1635.6 258.434 1560.07 220.53 1543.32 210.739 1517.41 190.84 1494.97 173.467 1455.46 133.669 1455.46 128.299 1455.46 121.034 1402.69 74.9184 1377.72 60.3885 1339.16 37.6467 1311.04 28.4866 1273.75 26.9074 1246.88 25.644 1238.98 26.2755 1221.92 32.2769 1185.89 44.2795 1157.45 69.5486 1140.38 104.609 1125.21 134.932 1127.11 195.262 1144.49 258.75L1146.39 266.014 1104.99 266.014C1064.85 266.014 1062.64 265.699 1043.99 256.223 981.418 224.637 892.298 208.212 822.455 215.477 777.263 219.899 740.919 230.954 696.991 252.748L660.648 270.752 628.729 313.394C611.031 336.768 597.441 356.351 598.705 356.351 599.654 356.667 608.818 358.562 619.248 360.773 666.02 370.249 679.925 411.311 653.695 462.796 626.832 516.177 579.744 561.977 488.411 622.938 456.176 644.733 435.95 660.842 420.149 677.582 332.292 771.709 345.249 911.004 460.917 1106.52 470.713 1122.95 480.826 1139.06 483.354 1142.53 495.68 1158.64 486.199 1134.32 455.86 1072.41 437.846 1036.09 418.568 992.496 413.196 976.072 383.173 885.735 387.914 796.662 425.837 738.228L435.95 722.435 439.742 757.18C444.799 803.611 452.068 841.515 463.761 883.524 477.034 931.535 488.411 959.647 531.075 1052.51 608.818 1221.18 643.582 1320.99 653.063 1401.22 655.275 1418.91 657.803 1434.07 659.067 1435.33 661.596 1438.49 690.987 1418.91 715.953 1396.8 745.028 1371.53 758.933 1362.69 782.003 1355.74 829.092 1340.89 874.284 1351 936.226 1389.85 950.447 1398.69 973.517 1410.38 987.423 1415.75 1017.13 1427.44 1047.15 1446.39 1060.11 1462.18L1069.27 1473.55 1076.23 1450.18C1085.39 1417.96 1097.09 1382.59 1111.62 1340.89L1124.26 1305.2 1234.87 1305.2 1345.8 1305.2 1337.27 1315.62C1322.1 1334.57 1278.49 1400.27 1269.32 1418.28 1256.68 1442.91 1241.83 1487.14 1237.4 1511.14 1235.19 1522.83 1233.29 1576.84 1232.66 1641.59 1231.08 1809 1217.81 1891.12 1180.52 1965.35 1147.97 2030.1 1090.13 2080.32 1025.66 2099.28 981.102 2112.54 908.415 2117.28 855.006 2110.33ZM1002.28 1811.84C1063.59 1782.78 1088.87 1683.29 1052.84 1612.22 1041.15 1588.84 1038.3 1587.58 1018.71 1595.48 1009.54 1598.95 997.852 1603.37 992.796 1605.27L983.63 1608.74 992.163 1617.59C1002.91 1628.64 1006.7 1642.54 1006.7 1668.76 1006.7 1695.29 999.748 1715.19 985.843 1728.77 955.82 1757.83 915.684 1724.66 914.104 1668.76 913.472 1650.12 912.524 1646.65 908.731 1648.22 906.203 1649.17 894.826 1652.96 883.449 1656.44 872.072 1660.23 861.959 1664.65 860.695 1666.55 853.11 1677.6 861.959 1733.51 875.548 1759.72 902.727 1814.05 953.608 1834.9 1002.28 1811.84ZM727.646 1794.47C757.985 1779.62 778.843 1740.14 781.687 1692.13L782.951 1663.7 764.622 1655.81C754.508 1651.38 745.028 1647.59 743.763 1646.96 742.499 1646.33 741.235 1651.38 741.235 1658.02 741.235 1688.02 720.693 1725.3 704.26 1725.3 687.194 1725.3 672.025 1700.03 671.709 1671.28 671.709 1649.8 678.977 1623.9 687.51 1616.32 696.675 1608.11 695.411 1604 680.874 1593.9L667.916 1585.05 661.912 1592.63C620.195 1645.07 620.828 1740.14 662.86 1782.15 682.454 1801.73 703.944 1805.84 727.646 1794.47ZM856.586 1647.91C873.968 1643.49 903.991 1629.9 940.334 1610.32 948.235 1605.9 967.513 1598 982.998 1592.32 1047.47 1569.58 1069.91 1551.26 1069.91 1521.56 1069.91 1485.87 1034.83 1450.18 978.258 1428.7 964.037 1423.33 942.547 1412.59 930.537 1404.7 881.553 1373.11 854.374 1363.95 815.819 1365.84 782.635 1367.42 763.673 1376.27 728.91 1405.96 714.373 1418.59 694.463 1433.76 684.666 1440.07 659.383 1455.87 643.582 1471.66 635.049 1489.98 620.195 1520.93 625.884 1533.88 667.6 1564.52 684.666 1577.16 707.42 1595.48 718.481 1605.27 765.57 1647.28 807.602 1660.23 856.586 1647.91ZM348.094 657.683C368.32 648.523 393.286 626.097 408.772 603.355 413.828 595.774 438.162 552.501 463.129 507.017 508.321 424.261 517.17 410.995 586.381 322.87 642.95 250.853 664.756 205.369 661.28 167.15 654.959 99.5555 614.823 61.0204 541.188 50.9127 498.208 45.2272 435.634 56.2825 386.017 78.3929 371.796 84.7099 348.094 95.4492 332.924 102.082 297.845 117.56 253.601 128.615 202.088 134.932 89.8967 148.83 71.8833 152.62 52.2893 165.57 33.6435 178.521 28.587 187.997 27.6388 214.845 26.6909 234.113 28.2708 244.852 34.9075 266.014 50.077 316.236 50.7091 325.712 42.8083 382.883 33.3273 452.373 36.1716 472.588 59.2418 496.278 71.5671 508.912 89.2647 518.072 125.608 530.707 170.485 546.816 182.494 555.975 215.361 600.196 266.874 669.686 295 682.004 348.094 657.683Z" fill="#FFFFFF" fill-rule="evenodd" transform="matrix(1 0 0 -1 984 2460)"/><path d="M8.00927 13.3237C-1.98288 8.00907-4.16833-2.28803 4.57454-2.28803 13.6298-2.28803 33.3021 8.34113 32.0528 12.3271 30.4918 17.642 16.7525 18.3062 8.00927 13.3237Z" fill="#FFFFFF" fill-rule="evenodd" transform="matrix(1 0 0 -1 1746 860)"/><path d="M0.608821 13.5263C-2.86279 11.3407-0.969283 9.15511 9.13015 4.15966 23.9635-3.33351 35.0099-4.27024 35.0099 1.97406 35.0099 11.6528 10.0771 20.0831 0.608821 13.5263Z" fill="#FFFFFF" fill-rule="evenodd" transform="matrix(1 0 0 -1 1832 859)"/><path d="M347.041 100.878C319.569 72.2464 263.678 37.8889 215.998 20.3919 168.948 2.89496 128.214 4.48582 86.849 25.4822 65.3768 36.6164 25.2744 69.7015 15.8013 84.3355 6.96011 97.6966 1.27597 99.2871-0.934073 89.1073-2.19742 81.4721 41.6943 39.1614 66.9557 23.8913 109.9-2.19494 160.738-8.8757 205.893 5.12188 230.523 12.7571 288.624 41.3883 313.885 58.2492 335.673 72.5648 365.039 99.6055 365.039 105.013 365.039 114.239 358.409 112.649 347.041 100.878Z" fill="#FFFFFF" fill-rule="evenodd" transform="matrix(1 0 0 -1 1638 1031)"/><text fill="#FFFFFF" font-family="Droid Sans Mono,Droid Sans Mono_MSFontService,sans-serif" font-weight="400" font-size="275" transform="matrix(1 0 0 1 1776.41 1369)">Linux</text><text fill="#FFFFFF" font-family="Droid Sans Mono,Droid Sans Mono_MSFontService,sans-serif" font-weight="400" font-size="275" transform="matrix(1 0 0 1 1776.41 1699)">Users</text><text fill="#FFFFFF" font-family="Droid Sans Mono,Droid Sans Mono_MSFontService,sans-serif" font-weight="400" font-size="275" transform="matrix(1 0 0 1 1776.41 2029)">Group</text></g></svg>